<svg width="116" height="12" viewBox="0 0 116 12" fill="none" xmlns="http://www.w3.org/2000/svg">
<path d="M0 0H2.31317L8.9101 8.11231V0H11.3091V11.8299H8.99595L2.39903 3.71841V11.8307H0V0Z" fill="black"/>
<path d="M16.0028 0H23.8818V2.02808H16.0028V4.90092H21.9979V6.929H16.0028V9.80183H24.0527V11.8299H16.0028L13.6046 9.80183V2.02727L16.0028 0Z" fill="black"/>
<path d="M55.0271 0H62.9062V2.02808H55.0271V4.90092H61.0223V6.929H55.0271V9.80183H63.0771V11.8299H55.0271L52.6289 9.80183V2.02727L55.0271 0Z" fill="black"/>
<path d="M30.0441 5.74615L25.5757 0.0045166H28.4113L31.5903 4.14167L34.7701 0.0045166H37.6056L33.1372 5.74615L37.9499 11.8247H35.1143L31.5911 7.43405L28.0679 11.8247H25.2323L30.0441 5.74615Z" fill="black"/>
<path d="M39.3317 0H48.1479L50.3736 2.02808V6.25351L48.1479 8.28159H41.7283V11.8307H39.3317V0ZM47.035 6.25351L47.9762 5.40875V2.87365L47.035 2.02889H41.7283V6.25432H47.035V6.25351Z" fill="black"/>
<path d="M65.1138 0H73.7542L75.9783 2.02808V5.91496L73.9251 7.8588L76.8336 11.8307H74.0109L71.1875 7.94385H67.5088V11.8307H65.113V0H65.1138ZM72.6421 5.91496L73.5833 5.07019V2.87284L72.6421 2.02808H67.5096V5.91496H72.6421Z" fill="black"/>
<path d="M78.2281 9.80265H80.6287V2.02808H78.2281V0H85.4308V2.02808H83.0302V9.80265H85.4308V11.8307H78.2281V9.80265Z" fill="black"/>
<path d="M87.7554 9.80265V0H90.1536V8.95707L91.2673 9.97111H95.5494L96.6631 8.95707V0H99.0613V9.80265L96.6631 12H90.1544L87.7554 9.80265Z" fill="black"/>
<path d="M101.556 0H103.955L108.494 6.42198L113.034 0H115.432V11.8307H113.034V4.05616L109.351 9.12635H107.638L103.956 4.05616V11.8307H101.557V0H101.556Z" fill="black"/>
</svg>
