<svg width="42" height="48" viewBox="0 0 42 48" fill="none" xmlns="http://www.w3.org/2000/svg">
<path d="M0 0H21H33.5625L42 9.42857V24V48H0V0Z" fill="#1A1713"/>
<path d="M18.7489 8.5882H24.847V10.1578H18.7489V12.3813H23.3889V13.9509H18.7489V16.1744H24.9793V17.7441H18.7489L16.8928 16.1744V10.1572L18.7489 8.5882Z" fill="#FCEDCE"/>
<path d="M29.5822 13.0357L26.1238 8.59192H28.3185L30.7789 11.7939L33.2399 8.59192H35.4345L31.9762 13.0357L35.7003 17.7403H33.5057L30.7789 14.3427L28.052 17.7403H25.8574L29.5822 13.0357Z" fill="#FCEDCE"/>
<path d="M6.44482 8.58813H8.23512L13.3409 14.8667V8.58813H15.1976V17.744H13.4073L8.30157 11.466V17.7446H6.44482V8.58813Z" fill="#FCEDCE"/>
<path d="M18.5917 19.5744H24.6898V21.144H18.5917V23.3675H23.2311V24.9372H18.5917V27.1606H24.822V28.7303H18.5917L16.7356 27.1606V21.144L18.5917 19.5744Z" fill="#FCEDCE"/>
<path d="M26.4603 19.5744H33.1476L34.869 21.144V24.1523L33.2799 25.6568L35.5309 28.7309H33.3464L31.1611 25.7226H28.314V28.7309H26.4597V19.5744H26.4603ZM32.287 24.153L33.0154 23.4991V21.7985L32.287 21.1447H28.3146V24.153H32.287Z" fill="#FCEDCE"/>
<path d="M6.44434 19.5744H13.2677L14.9903 21.144V24.4144L13.2677 25.984H8.2992V28.7309H6.44434V19.5744ZM12.4064 24.4144L13.1348 23.7605V21.7985L12.4064 21.144H8.2992V24.4144H12.4064Z" fill="#FCEDCE"/>
<path d="M6.44434 38.1487H8.30234V32.1315H6.44434V30.5619H12.019V32.1315H10.1603V38.1487H12.0183V39.7184H6.44434V38.1487Z" fill="#FCEDCE"/>
<path d="M13.8157 38.1413V30.5626H15.6699V37.4881L16.5306 38.2723H19.8416L20.7023 37.4881V30.5626H22.5566V38.1413L20.7023 39.8401H15.6699L13.8157 38.1413Z" fill="#FCEDCE"/>
<path d="M24.4998 30.5619H26.3559L29.8694 35.5322L33.3829 30.5619H35.239V39.7177H33.3829V33.7006L30.5326 37.6247H29.2068L26.3565 33.7006V39.7177H24.5004V30.5619H24.4998Z" fill="#FCEDCE"/>
</svg>
