<svg width="542" height="578" viewBox="0 0 542 578" fill="none" xmlns="http://www.w3.org/2000/svg">
<path d="M491.435 232.139L488.355 229.06H479.657L476.577 232.139L473.51 235.219V243.917L476.577 246.984C476.577 246.996 476.577 246.996 476.59 246.996L479.657 250.064L484.024 254.566L488.355 250.064L491.435 246.996V246.984L494.514 243.917V235.219L491.435 232.139Z" fill="black"/>
<path d="M487.742 248.591H480.27L474.982 243.304V235.832L480.27 230.544H487.742L490.392 233.182L490.073 233.501L490.392 233.182L493.029 235.82V243.291L487.742 248.591ZM480.65 247.696H487.374L492.134 242.936V236.2L487.374 231.452H480.65L475.89 236.2V242.936L480.65 247.696Z" fill="white"/>
<path d="M482.945 233.722H485.092V235.648H482.945V233.722ZM482.945 236.899H485.092V244.984H482.945V236.899Z" fill="white"/>
<path d="M434.472 264.835H433.957C432.975 264.835 431.994 264.847 431.025 264.823C430.644 264.811 430.558 264.958 430.558 265.301C430.571 267.62 430.558 269.939 430.571 272.245C430.583 272.601 430.473 272.712 430.104 272.712C428.46 272.699 426.792 272.699 425.148 272.712C424.768 272.724 424.645 272.613 424.645 272.221C424.657 269.878 424.645 267.547 424.645 265.191C424.645 265.081 424.633 264.97 424.62 264.823H420.756C420.817 264.627 420.854 264.492 420.903 264.357C422.118 261.032 423.32 257.719 424.535 254.395C424.62 254.137 424.731 254.027 425.025 254.027C426.755 254.039 428.497 254.039 430.239 254.027C430.497 254.027 430.62 254.112 430.706 254.37C431.932 257.756 433.159 261.142 434.398 264.528C434.423 264.602 434.435 264.688 434.472 264.835Z" fill="black"/>
<path d="M427.626 245.684C429.258 245.696 430.57 247.009 430.583 248.628C430.583 250.26 429.221 251.597 427.601 251.585C425.982 251.573 424.669 250.236 424.682 248.616C424.682 246.972 425.994 245.672 427.626 245.684Z" fill="black"/>
<path d="M369.731 254.051H383.423C383.288 254.456 383.165 254.824 383.03 255.192C381.914 258.271 380.785 261.351 379.668 264.43C379.57 264.712 379.521 265.019 379.509 265.313C379.497 267.632 379.497 269.951 379.509 272.27C379.521 272.601 379.423 272.711 379.08 272.711C377.399 272.699 375.718 272.699 374.037 272.711C373.706 272.711 373.62 272.613 373.62 272.282C373.632 270.073 373.62 267.877 373.632 265.669C373.632 265.08 373.522 264.528 373.326 263.976C372.16 260.811 371.007 257.621 369.854 254.431C369.805 254.321 369.768 254.198 369.731 254.051Z" fill="black"/>
<path d="M373.62 248.641C373.62 247.009 374.908 245.696 376.54 245.684C378.184 245.672 379.509 246.984 379.509 248.641C379.509 250.26 378.196 251.585 376.577 251.585C374.945 251.573 373.62 250.26 373.62 248.641Z" fill="black"/>
<path d="M540.901 59.4719V136.494" stroke="black" stroke-width="0.746" stroke-miterlimit="10" stroke-dasharray="2.98 2.98"/>
<path d="M490.687 287.298H515.531C529.689 287.298 541 275.447 541 261.277V204.731" stroke="black" stroke-width="0.746" stroke-miterlimit="10" stroke-dasharray="2.98 2.98"/>
<path d="M52.6998 106.056L52.6998 38.5298" stroke="black" stroke-width="0.497" stroke-miterlimit="10"/>
<path d="M252.726 155.829L257.695 160.797V158.552L254.934 155.829L257.695 153.105V150.86L252.726 155.829Z" fill="black"/>
<path d="M261.854 155.829L266.822 160.798V158.553L264.062 155.829L266.822 153.093L266.81 150.848L261.854 155.829Z" fill="black"/>
<path d="M257.29 155.829L262.258 160.797V158.552L259.498 155.829L262.258 153.105V150.86L257.29 155.829Z" fill="black"/>
<path d="M210.203 80.439L205.234 85.4077H207.48L210.203 82.6596L212.939 85.4077H215.172L210.203 80.439Z" fill="black"/>
<path d="M210.203 89.5664L205.234 94.5352H207.48L210.203 91.7747L212.939 94.5352H215.172L210.203 89.5664Z" fill="black"/>
<path d="M210.203 85.0024L205.234 89.9712H207.48L210.203 87.2108L212.939 89.9712H215.172L210.203 85.0024Z" fill="black"/>
<path d="M290.206 15.3665L285.238 10.3977V12.6428L287.998 15.3665L285.238 18.0901V20.3352L290.206 15.3665Z" fill="black"/>
<path d="M281.091 15.3665L276.11 10.3977V12.6428L278.87 15.3665L276.11 18.0901V20.3352H276.122L281.091 15.3665Z" fill="black"/>
<path d="M285.642 15.3665L280.674 10.3977V12.6428L283.434 15.3665L280.674 18.0901V20.3352L285.642 15.3665Z" fill="black"/>
<path d="M75.2986 19.2806H77.1879V13.269H75.2986V11.6986L80.9666 11.6986V13.269H79.0773V19.2806H80.9666V20.8509H75.2986V19.2806Z" fill="black"/>
<path d="M82.5857 11.6986H84.4014L89.591 17.9801V11.6986H91.4681V20.8509H89.6524L84.4628 14.5694V20.8509H82.5857V11.6986Z" fill="black"/>
<path d="M93.4308 11.6986L100.436 11.6986L102.325 13.3917V19.1456L100.436 20.8387H93.4308V11.6986ZM99.5528 19.2806L100.424 18.4954V14.0542L99.5528 13.269H95.3079V19.2806H99.5528Z" fill="black"/>
<path d="M104.141 19.2806V11.6986H106.018V18.6303L106.89 19.4032H110.276L111.147 18.6303V11.6986H113.036V19.2806L111.147 20.9859H106.018L104.141 19.2806Z" fill="black"/>
<path d="M114.852 19.2806H120.777L121.526 18.6303V17.6488L120.777 16.9986H116.471L114.717 15.4282V13.269L116.471 11.6986L122.863 11.6986V13.269L117.342 13.269L116.606 13.9192V14.778L117.342 15.4282L121.648 15.4282L123.403 16.9986V19.2806L121.648 20.8509H114.852V19.2806Z" fill="black"/>
<path d="M127.513 13.2686H124.017V11.7104L132.899 11.7104V13.2686L129.403 13.2686V20.8505H127.513V13.2686Z" fill="black"/>
<path d="M134.187 11.6986L140.984 11.6986L142.738 13.269V16.2748L141.119 17.7715L143.401 20.8509H141.18L138.959 17.8451H136.064V20.8509H134.175V11.6986H134.187ZM140.113 16.2748L140.849 15.6245V13.9192L140.113 13.269H136.064V16.2748H140.113Z" fill="black"/>
<path d="M147.461 17.8451L143.339 11.6986H145.498L148.394 16.0171L151.302 11.6986H153.449L149.339 17.8451V20.8509H147.461V17.8451Z" fill="black"/>
<path d="M73.3717 16.2743L72.5865 15.4891H69.0777L68.2925 16.2743L69.0777 17.0595H72.5865L73.3717 16.2743Z" fill="black"/>
<path d="M11.7234 11.6986H13.6005V15.4896H18.5938V11.6986H20.4709V20.8509H18.5938V17.06H13.6005L13.6005 20.8509H11.7234L11.7234 11.6986Z" fill="black"/>
<path d="M22.4333 19.2806V11.6986H24.3227V18.6303L25.1938 19.4032H28.5676L29.4387 18.6303V11.6986H31.328V19.2806L29.4387 20.9859H24.3227L22.4333 19.2806Z" fill="black"/>
<path d="M33.2784 11.6986H35.1678L38.7379 16.6674L42.3081 11.6986H44.1974V20.8509H42.3081V14.8394L39.4127 18.753H38.0632L35.1678 14.8394V20.8509H33.2784V11.6986Z" fill="black"/>
<path d="M49.3747 11.7104L51.8039 11.7104L55.9875 20.8505H53.9018L52.8222 18.4336H48.381L47.3013 20.8505H45.2157L49.3747 11.7104ZM52.0738 16.8632L50.5893 13.5385L49.1048 16.8632H52.0738Z" fill="black"/>
<path d="M56.9937 11.6986H58.8094L63.999 17.9801V11.6986H65.8883V20.8509H64.0726L58.883 14.5694V20.8509H56.9937V11.6986Z" fill="black"/>
<path d="M148.701 189.973L147.916 189.188H144.407L143.622 189.973L144.407 190.746H147.916L148.701 189.973Z" fill="#13110C"/>
<path d="M87.0759 185.396H88.953V189.187H93.934V185.396H95.8234V194.549H93.934V190.746H88.953V194.549H87.0759V185.396Z" fill="black"/>
<path d="M97.774 192.966V185.396H99.6634V192.328L100.534 193.101H103.896L104.792 192.328V185.396H106.669V192.966L104.792 194.672H99.6634L97.774 192.966Z" fill="black"/>
<path d="M108.62 185.396H110.509L114.08 190.353L117.65 185.396H119.527V194.549H117.65V188.525L114.742 192.451H113.405L110.509 188.525V194.549H108.62V185.396Z" fill="black"/>
<path d="M124.716 185.396H127.145L131.329 194.537H129.231L128.163 192.12H123.71L122.63 194.537H120.545L124.716 185.396ZM127.415 190.549L125.93 187.225L124.446 190.549H127.415Z" fill="black"/>
<path d="M132.322 185.396H134.138L139.327 191.666V185.396H141.217V194.549H139.401L134.211 188.267V194.549H132.322V185.396Z" fill="black"/>
<path d="M199.725 193.089H196.401H194.806H193.517V192.303C193.517 191.849 193.517 191.396 193.517 190.929C193.517 190.88 193.53 190.868 193.579 190.868H193.628H198.143C198.216 190.868 198.216 190.868 198.216 190.807V189.396C198.216 189.31 198.216 189.31 198.13 189.31H193.603C193.517 189.31 193.517 189.31 193.517 189.236V188.549V187.102H194.806H199.615C199.688 187.102 199.688 187.102 199.688 187.028V185.617C199.688 185.543 199.688 185.543 199.603 185.543H193.481L191.628 187.2V190.107V193.003L193.481 194.671H199.75C199.823 194.671 199.823 194.671 199.823 194.598V193.187C199.811 193.089 199.811 193.089 199.725 193.089Z" fill="black"/>
<path d="M151.106 185.531H152.995L156.565 190.488L160.136 185.531H162.013V194.671H160.136V188.659L157.24 192.573H155.891L152.995 188.659V194.671H151.106V185.531Z" fill="black"/>
<path d="M167.202 185.531H169.618L173.802 194.671H171.716L170.637 192.254H166.183L165.116 194.671H163.03L167.202 185.531ZM169.901 190.684L168.416 187.347L166.932 190.684H169.901Z" fill="black"/>
<path d="M176.293 187.089H172.796V185.531H181.188V187.089H178.182V194.671H176.293V187.089Z" fill="black"/>
<path d="M185.212 187.089H182.194V185.531H190.598V187.089H187.101V194.671H185.212V187.089Z" fill="black"/>
<path d="M201.308 185.531H208.105L209.859 187.101V190.095L208.24 191.604L210.534 194.671H208.301L206.081 191.665H203.185V194.671H201.296V185.531H201.308ZM207.234 190.095L207.982 189.445V187.752L207.234 187.101H203.198V190.095H207.234Z" fill="black"/>
<path d="M360.136 191.334H361.584L362.48 194.806C362.627 195.395 362.786 196.328 362.786 196.328H362.799C362.799 196.328 362.983 195.469 363.118 194.843L363.878 191.346H365.24L366.001 194.843C366.148 195.456 366.332 196.328 366.332 196.328H366.357C366.357 196.328 366.553 195.407 366.688 194.794L367.571 191.334H368.97L366.982 198.315H365.657L364.799 194.573C364.688 194.07 364.553 193.334 364.553 193.334H364.541C364.541 193.334 364.43 194.07 364.308 194.573L363.461 198.315H362.149L360.136 191.334Z" fill="black"/>
<path d="M368.676 195.8C368.676 194.315 369.669 193.162 371.142 193.162C372.749 193.162 373.62 194.401 373.62 196.18H369.988C370.086 196.953 370.516 197.432 371.264 197.432C371.779 197.432 372.074 197.198 372.233 196.818H373.534C373.35 197.714 372.552 198.462 371.276 198.462C369.62 198.462 368.676 197.284 368.676 195.8ZM370.001 195.26H372.233C372.184 194.634 371.767 194.18 371.154 194.18C370.467 194.193 370.123 194.61 370.001 195.26Z" fill="black"/>
<path d="M375.571 191.322H374.246V198.303H375.571V191.322Z" fill="black"/>
<path d="M376.209 195.812C376.209 194.315 377.19 193.162 378.711 193.162C380 193.162 380.809 193.91 380.981 194.99H379.681C379.595 194.561 379.251 194.229 378.76 194.229C377.963 194.229 377.546 194.843 377.546 195.812C377.546 196.757 377.938 197.382 378.736 197.382C379.276 197.382 379.644 197.1 379.742 196.536H381.018C380.92 197.591 380.11 198.45 378.76 198.45C377.19 198.462 376.209 197.309 376.209 195.812Z" fill="black"/>
<path d="M381.361 195.812C381.361 194.315 382.428 193.162 383.974 193.162C385.532 193.162 386.587 194.315 386.587 195.812C386.587 197.309 385.532 198.462 383.974 198.462C382.428 198.462 381.361 197.309 381.361 195.812ZM385.25 195.812C385.25 194.831 384.796 194.168 383.986 194.168C383.164 194.168 382.723 194.831 382.723 195.812C382.723 196.781 383.164 197.444 383.986 197.444C384.784 197.444 385.25 196.781 385.25 195.812Z" fill="black"/>
<path d="M387.214 193.297H388.489V193.972H388.514C388.784 193.518 389.275 193.162 389.962 193.162C390.6 193.162 391.103 193.506 391.348 194.045H391.36C391.704 193.493 392.231 193.162 392.857 193.162C393.912 193.162 394.513 193.849 394.513 194.941V198.315H393.188V195.174C393.188 194.61 392.906 194.315 392.415 194.315C391.863 194.315 391.52 194.745 391.52 195.407V198.315H390.195V195.174C390.195 194.61 389.913 194.315 389.434 194.315C388.894 194.315 388.538 194.745 388.538 195.407V198.315H387.214V193.297V193.297Z" fill="black"/>
<path d="M395.115 195.8C395.115 194.315 396.108 193.162 397.581 193.162C399.188 193.162 400.059 194.401 400.059 196.18H396.427C396.526 196.953 396.955 197.432 397.703 197.432C398.219 197.432 398.525 197.198 398.673 196.818H399.973C399.789 197.714 398.992 198.462 397.716 198.462C396.047 198.462 395.115 197.284 395.115 195.8ZM396.44 195.26H398.673C398.624 194.634 398.206 194.18 397.605 194.18C396.894 194.193 396.55 194.61 396.44 195.26Z" fill="black"/>
<path d="M402.144 197.248L405.947 192.537V192.512H402.389V191.334H407.628V192.512L403.948 197.076V197.113H407.689V198.315H402.144V197.248Z" fill="black"/>
<path d="M407.972 195.812C407.972 194.315 409.039 193.162 410.585 193.162C412.143 193.162 413.198 194.315 413.198 195.812C413.198 197.309 412.143 198.462 410.585 198.462C409.039 198.462 407.972 197.309 407.972 195.812ZM411.861 195.812C411.861 194.831 411.395 194.168 410.585 194.168C409.775 194.168 409.321 194.831 409.321 195.812C409.321 196.781 409.775 197.444 410.585 197.444C411.395 197.444 411.861 196.781 411.861 195.812Z" fill="black"/>
<path d="M415.124 193.984H415.161C415.492 193.444 415.959 193.162 416.646 193.162C417.676 193.162 418.363 193.947 418.363 195.039V198.315H417.038V195.235C417.038 194.696 416.719 194.328 416.167 194.328C415.578 194.328 415.149 194.794 415.149 195.481V198.327H413.824V193.322H415.124V193.984Z" fill="black"/>
<path d="M418.94 195.8C418.94 194.315 419.934 193.162 421.406 193.162C423.013 193.162 423.872 194.401 423.872 196.18H420.241C420.339 196.953 420.768 197.432 421.517 197.432C422.032 197.432 422.339 197.198 422.486 196.818H423.786C423.602 197.714 422.805 198.462 421.529 198.462C419.885 198.462 418.94 197.284 418.94 195.8ZM420.265 195.26H422.498C422.461 194.634 422.044 194.18 421.431 194.18C420.719 194.193 420.388 194.61 420.265 195.26Z" fill="black"/>
<path d="M294.696 40.762L293.923 39.9768H290.402L289.629 40.762L290.402 41.5472H293.923L294.696 40.762Z" fill="#13110C"/>
<path d="M233.072 36.1863H234.961V39.9773H239.942V36.1863H241.831V45.3263H239.942V41.5476H234.961V45.3263H233.072V36.1863Z" fill="black"/>
<path d="M243.782 43.756V36.1863H245.671V43.1057L246.543 43.8909H249.904L250.787 43.1057V36.1863H252.677V43.756L250.787 45.4613H245.671L243.782 43.756Z" fill="black"/>
<path d="M254.627 36.1863H256.504L260.074 41.155L263.645 36.1863H265.534V45.3263H263.645V39.327L260.749 43.2284H259.4L256.504 39.327V45.3263H254.627V36.1863Z" fill="black"/>
<path d="M270.723 36.1863H273.14L277.324 45.3263H275.238L274.159 42.9094H269.705L268.625 45.3263H266.54L270.723 36.1863ZM273.41 41.3513L271.926 38.0143L270.441 41.3513H273.41Z" fill="black"/>
<path d="M278.33 36.1863H280.146L285.335 42.4555V36.1863H287.225V45.3263H285.397L280.207 39.0571V45.3263H278.33V36.1863Z" fill="black"/>
<path d="M233.072 56.4662V48.8965H234.961V55.8159L235.832 56.6011H239.206L240.077 55.8159V48.8965H241.966V56.4662L240.077 58.1715H234.961L233.072 56.4662Z" fill="black"/>
<path d="M243.844 48.8965H245.659L250.849 55.1657V48.8965H252.738V58.0365H250.922L245.733 51.7673V58.0365H243.844V48.8965Z" fill="black"/>
<path d="M254.418 56.4662H256.308V50.4546H254.418V48.8965H260.074V50.4546H258.197V56.4662H260.074V58.0365H254.418V56.4662Z" fill="black"/>
<path d="M260.859 48.8965H262.945L266.049 56.2085L269.141 48.8965H271.226L267.251 58.0365H264.822L260.859 48.8965Z" fill="black"/>
<path d="M281.692 48.884H288.488L290.243 50.4544V53.4602L288.623 54.957L290.917 58.0364H288.685L286.476 55.0306H283.581V58.0364H281.692V48.884ZM287.617 53.4602L288.353 52.81V51.1046L287.617 50.4544H283.581V53.4602H287.617Z" fill="black"/>
<path d="M291.923 56.4662H297.861L298.598 55.8159V54.8345L297.861 54.1842H293.543L291.801 52.6138V50.4546L293.543 48.8965H299.947V50.4546H294.426L293.678 51.1171V51.9636L294.426 52.6138H298.72L300.475 54.1842V56.4662L298.72 58.0365H291.923V56.4662Z" fill="black"/>
<path d="M280.109 56.4538H276.772H275.177H273.877V55.6687V54.2946C273.877 54.2455 273.889 54.2332 273.938 54.2332H273.987H278.502C278.576 54.2332 278.576 54.2332 278.576 54.1719V52.761C278.576 52.6751 278.576 52.6751 278.49 52.6751H273.95C273.864 52.6751 273.864 52.6751 273.864 52.6015V51.9145V50.4668H275.165H279.962C280.036 50.4668 280.036 50.4668 280.036 50.3932V48.9823C280.036 48.9087 280.036 48.9087 279.95 48.9087H273.828L271.975 50.5649V53.4726V56.368L273.828 58.0242H280.097C280.17 58.0242 280.17 58.0242 280.17 57.9506V56.5397C280.195 56.4538 280.195 56.4538 280.109 56.4538Z" fill="black"/>
<path d="M310.228 56.4538H306.891H305.296H304.008V55.6687C304.008 55.2147 304.008 54.7608 304.008 54.2946C304.008 54.2455 304.02 54.2332 304.069 54.2332H304.118H308.633C308.694 54.2332 308.694 54.2332 308.694 54.1719V52.761C308.694 52.6751 308.694 52.6751 308.608 52.6751H304.081C303.995 52.6751 303.995 52.6751 303.995 52.6015V51.9145V50.4668H305.284H310.105C310.179 50.4668 310.179 50.4668 310.179 50.3932V48.9823C310.179 48.9087 310.179 48.9087 310.093 48.9087H303.971L302.118 50.5649V53.4726V56.368L303.971 58.0242H310.228C310.302 58.0242 310.302 58.0242 310.302 57.9506V56.5397C310.314 56.4538 310.314 56.4538 310.228 56.4538Z" fill="black"/>
<path d="M152.431 291.605H154.32V295.396H159.301V291.605H161.19V300.745H159.301V296.966H154.32V300.745H152.431V291.605Z" fill="black"/>
<path d="M176.379 291.605H178.808L182.991 300.745H180.906L179.826 298.328H175.385L174.305 300.745H172.22L176.379 291.605ZM179.078 296.77L177.593 293.433L176.109 296.77H179.078Z" fill="black"/>
<path d="M183.997 291.605H190.794L192.549 293.175V296.181L190.929 297.678L193.211 300.757H190.99L188.77 297.751H185.874V300.757H183.985V291.605H183.997ZM189.923 296.181L190.659 295.531V293.825L189.923 293.175H185.874V296.181H189.923Z" fill="black"/>
<path d="M197.198 293.175H193.702V291.605H202.584V293.175H199.087V300.757H197.198V293.175Z" fill="black"/>
<path d="M171.262 299.162H167.925H166.33H165.042V298.377V297.003C165.042 296.954 165.055 296.942 165.104 296.942C165.116 296.954 165.128 296.942 165.153 296.942H169.667C169.741 296.942 169.741 296.942 169.741 296.88V295.469C169.741 295.383 169.741 295.383 169.655 295.383H165.116C165.03 295.383 165.03 295.383 165.03 295.31V294.611V293.163H166.318H171.127C171.189 293.163 171.201 293.163 171.201 293.089V291.678C171.201 291.605 171.201 291.605 171.115 291.605H164.993L163.141 293.273V296.169V299.064L164.993 300.733H171.262C171.336 300.733 171.336 300.733 171.336 300.659V299.248C171.348 299.162 171.348 299.162 171.262 299.162Z" fill="black"/>
<path d="M214.068 283.471L213.27 282.686H209.774L208.988 283.471L209.774 284.256H213.27L214.068 283.471Z" fill="#13110C"/>
<path d="M152.431 278.895H154.32V282.686H159.301V278.895H161.19V288.047H159.301V284.256H154.32V288.047H152.431V278.895Z" fill="black"/>
<path d="M163.141 286.476V278.895H165.03V285.826L165.901 286.599H169.263L170.146 285.826V278.895H172.035V286.476L170.146 288.182H165.03L163.141 286.476Z" fill="black"/>
<path d="M173.986 278.895H175.876L179.446 283.863L183.004 278.895H184.893V288.047H183.004V282.035L180.108 285.949H178.771L175.876 282.035V288.047H173.986V278.895Z" fill="black"/>
<path d="M190.083 278.895H192.5L196.683 288.035H194.585L193.518 285.618H189.064L187.985 288.035H185.899L190.083 278.895ZM192.77 284.06L191.285 280.723L189.801 284.06H192.77Z" fill="black"/>
<path d="M197.688 278.895H199.504L204.694 285.176V278.895H206.583V288.047H204.755L199.578 281.778V288.047H197.688V278.895Z" fill="black"/>
<path d="M331.649 268.822L141.867 268.822" stroke="black" stroke-width="0.995" stroke-miterlimit="10"/>
<path d="M453.046 78.8193L521.872 78.8193C532.484 78.5985 540.987 69.7283 540.987 58.8339V16.7773C540.815 8.0176 533.478 1 524.51 1L1.0238 1L1.0238 281.042H78.6959V269.411H141.744V385.116H59.9618L59.9618 576.64H331.563L331.514 325.491C331.514 304.18 355.916 287.323 377.741 287.323H492.931" stroke="black" stroke-width="1.989" stroke-miterlimit="10"/>
<path d="M198.351 1.01233L198.351 175.324" stroke="black" stroke-width="0.995" stroke-miterlimit="10"/>
<path d="M116.41 385.778H255.216L255.216 269.251" stroke="black" stroke-width="0.995" stroke-miterlimit="10"/>
<path d="M77.3103 239.61L77.3103 165.41H1L1 281.054H77.3103V239.61Z" stroke="black" stroke-width="0.497" stroke-miterlimit="10"/>
<path d="M52.6998 52.0862L156.467 52.0862C157.62 52.0862 158.553 53.0186 158.553 54.1718V94.3267C158.553 95.48 157.62 96.4247 156.467 96.4247L52.6998 96.4247" stroke="black" stroke-width="0.497" stroke-miterlimit="10"/>
<path d="M382.012 63.2751V138.395L340.005 138.395V26.4204L223.306 26.4204L223.306 138.469L275.742 138.395" stroke="black" stroke-width="0.497" stroke-miterlimit="10"/>
<path d="M413.554 1.20837V78.8191H453.046" stroke="black" stroke-width="0.497" stroke-miterlimit="10"/>
<path d="M413.554 44.0503L381.852 44.0503" stroke="black" stroke-width="0.497" stroke-miterlimit="10"/>
<path d="M52.6998 81.2487H66.0725L66.7596 80.5739V67.8637L66.0725 67.189H52.6998" stroke="black" stroke-width="0.497" stroke-miterlimit="10"/>
<path d="M413.554 63.3367L381.852 63.3367" stroke="black" stroke-width="0.497" stroke-miterlimit="10"/>
<path d="M413.554 67.2131H381.852" stroke="black" stroke-width="0.497" stroke-miterlimit="10"/>
<path d="M413.554 71.0903H381.852" stroke="black" stroke-width="0.497" stroke-miterlimit="10"/>
<path d="M413.554 74.9795H381.852" stroke="black" stroke-width="0.497" stroke-miterlimit="10"/>
<path d="M413.689 78.8564H381.987" stroke="black" stroke-width="0.497" stroke-miterlimit="10"/>
<path d="M453.45 234.47L351.671 234.47V252.174L331.648 252.076V287.2" stroke="black" stroke-width="0.497" stroke-miterlimit="10"/>
<path d="M484.012 261.031V286.746" stroke="black" stroke-width="0.497" stroke-miterlimit="10"/>
<path d="M401.789 286.906V234.47" stroke="black" stroke-width="0.497" stroke-miterlimit="10"/>
<path d="M453.452 152.811V286.893" stroke="black" stroke-width="0.497" stroke-miterlimit="10"/>
<path d="M378.76 286.906H331.551" stroke="black" stroke-width="0.497" stroke-miterlimit="10"/>
<path d="M484.012 224.128V152.198" stroke="black" stroke-width="0.497" stroke-miterlimit="10"/>
<path d="M330.901 268.822V331.244" stroke="black" stroke-width="0.995" stroke-miterlimit="10"/>
<path d="M222.054 552.777L219.478 550.201H212.19L209.614 552.777L207.038 555.354V562.654L209.614 565.23L212.19 567.806H219.478L222.054 565.23L224.631 562.654V555.354L222.054 552.777Z" fill="black"/>
<path d="M212.767 557.82H211.172V556.899C212.043 556.863 212.816 556.544 212.951 555.636H214.178V562.751H212.767V557.82V557.82Z" fill="white"/>
<path d="M217.11 559.942C217.993 559.243 218.962 558.752 218.962 557.845C218.962 557.182 218.619 556.74 217.981 556.74C217.269 556.74 216.852 557.256 216.84 558.176H215.515C215.515 556.569 216.337 555.55 218.018 555.55C219.564 555.55 220.422 556.593 220.422 557.808C220.422 559.145 219.515 559.771 218.656 560.347C218.104 560.703 217.466 561.157 217.233 561.611H220.484V562.764H215.405C215.466 561.402 216.3 560.568 217.11 559.942Z" fill="white"/>
<path d="M246.739 552.777L244.162 550.201H236.875L234.299 552.777L231.722 555.354V562.654L234.299 565.23L236.875 567.806H244.162L246.739 565.23L249.315 562.654V555.354L246.739 552.777Z" fill="black"/>
<path d="M238.249 557.82H236.654V556.899C237.513 556.863 238.298 556.544 238.433 555.636H239.66V562.751H238.249V557.82V557.82Z" fill="white"/>
<path d="M242.494 557.82H240.899V556.899C241.77 556.863 242.543 556.544 242.69 555.636H243.917V562.751H242.506V557.82H242.494Z" fill="white"/>
<path d="M319.982 552.777L317.406 550.201H310.118L307.542 552.777L304.965 555.354V562.654L307.542 565.23H307.554L310.118 567.806H317.406L319.982 565.23L322.558 562.654V555.354L319.982 552.777Z" fill="black"/>
<path d="M310.265 557.82H308.67V556.899C309.541 556.863 310.314 556.544 310.461 555.636H311.688V562.751H310.265V557.82V557.82Z" fill="white"/>
<path d="M312.939 559.218C312.939 556.961 314.105 555.525 315.896 555.525C317.724 555.525 318.84 556.949 318.84 559.218C318.84 561.463 317.724 562.911 315.884 562.911C314.092 562.911 312.939 561.476 312.939 559.218ZM317.38 559.218C317.38 557.721 316.951 556.715 315.908 556.715C314.853 556.715 314.411 557.709 314.411 559.218C314.411 560.715 314.865 561.709 315.908 561.709C316.951 561.721 317.38 560.739 317.38 559.218Z" fill="white"/>
<path d="M134.224 481.877L131.648 479.301H124.36L121.784 481.877L119.208 484.454V491.741L121.784 494.317L124.36 496.882H131.648L134.224 494.317L136.801 491.741V484.454L134.224 481.877Z" fill="white"/>
<path d="M127.857 486.907H126.262V485.987C127.133 485.95 127.906 485.631 128.041 484.723H129.268V491.839H127.857V486.907Z" fill="black"/>
<path d="M167.46 362.406L164.883 359.83H157.583L155.007 362.406L152.431 364.983V372.27L155.007 374.847L157.583 377.423H164.883L167.46 374.847L170.036 372.27V364.983L167.46 362.406Z" fill="black"/>
<path d="M158.467 369.964H159.804C159.853 370.811 160.233 371.399 161.203 371.399C161.988 371.399 162.442 370.97 162.442 370.258C162.442 369.571 162.012 369.154 161.141 369.154H160.712V368.099H161.105C161.779 368.099 162.258 367.756 162.258 367.167C162.258 366.602 161.877 366.234 161.252 366.234C160.454 366.234 160.062 366.762 160.025 367.486H158.688C158.737 366.087 159.608 365.155 161.252 365.155C162.736 365.155 163.681 365.891 163.681 367.069C163.681 367.866 163.178 368.332 162.466 368.553V368.578C163.374 368.799 163.902 369.375 163.902 370.344C163.902 371.817 162.687 372.516 161.239 372.516C159.424 372.528 158.491 371.522 158.467 369.964Z" fill="white"/>
<path d="M167.46 246.064L164.883 243.487H157.583L155.007 246.064L152.431 248.64V255.928L155.007 258.504L157.583 261.08H164.883L167.46 258.504L170.036 255.928V248.64L167.46 246.064Z" fill="black"/>
<path d="M160.38 253.217C161.264 252.517 162.233 252.027 162.233 251.119C162.233 250.456 161.877 250.015 161.251 250.015C160.54 250.015 160.123 250.53 160.098 251.45H158.773C158.773 249.831 159.595 248.812 161.276 248.812C162.822 248.812 163.681 249.855 163.681 251.07C163.681 252.395 162.773 253.033 161.914 253.609C161.362 253.965 160.724 254.419 160.491 254.861H163.754V256.014H158.675C158.736 254.677 159.583 253.842 160.38 253.217Z" fill="white"/>
<path d="M244.187 217.196L241.611 214.62H234.323L231.747 217.196L229.17 219.772V227.06L231.747 229.636L234.323 232.213H241.611L244.187 229.636L246.763 227.06V219.772L244.187 217.196Z" fill="black"/>
<path d="M237.833 222.239H236.238V221.306C237.096 221.27 237.882 220.951 238.017 220.043H239.243V227.158H237.833V222.239V222.239Z" fill="white"/>
<path d="M45.2529 217.196L42.6765 214.62H35.389L32.8126 217.196H32.8003L30.2362 219.772L30.2362 227.06L32.8003 229.636H32.8126L35.389 232.213H42.6765L45.2529 229.636L47.8293 227.06V219.772L45.2529 217.196Z" fill="white"/>
<path d="M38.1858 224.36C39.0691 223.661 40.0383 223.158 40.0383 222.25C40.0383 221.6 39.6826 221.146 39.0569 221.146C38.3453 221.146 37.9282 221.661 37.9036 222.582H36.5786C36.5786 220.974 37.4006 219.956 39.0814 219.956C40.6272 219.956 41.486 220.999 41.486 222.213C41.486 223.538 40.5782 224.176 39.7071 224.753C39.155 225.109 38.5293 225.563 38.2839 226.004H41.5351V227.17H36.4559C36.5295 225.808 37.3761 224.986 38.1858 224.36Z" fill="black"/>
<path d="M483.706 33.622L481.129 31.0457L473.829 31.0457L471.253 33.622L468.689 36.1862V43.4859L471.253 46.0623L473.829 48.6387H481.129L483.706 46.0623L486.282 43.4859V36.1862L483.706 33.622Z" fill="white"/>
<path d="M474.713 41.1797H476.05C476.099 42.0263 476.48 42.6152 477.449 42.6152C478.234 42.6152 478.7 42.198 478.7 41.4742C478.7 40.7994 478.271 40.3823 477.4 40.3823H476.958V39.3272H477.363C478.038 39.3272 478.504 38.9837 478.504 38.3948C478.504 37.8304 478.124 37.4624 477.498 37.4624C476.701 37.4624 476.308 37.9777 476.271 38.726H474.934C474.983 37.3274 475.854 36.395 477.498 36.395C478.983 36.395 479.927 37.1311 479.927 38.2966C479.927 39.0941 479.424 39.548 478.725 39.7811V39.8057C479.621 40.0265 480.16 40.6031 480.16 41.5723C480.16 43.0446 478.958 43.7439 477.498 43.7439C475.67 43.7316 474.738 42.7256 474.713 41.1797Z" fill="black"/>
<path d="M244.187 321.11L241.611 318.534H234.323L231.747 321.11L229.17 323.674V330.974L231.747 333.551L234.323 336.127H241.611L244.187 333.551L246.763 330.974V323.674L244.187 321.11Z" fill="black"/>
<path d="M238.409 329.527H235.157V328.018L238.36 323.92H239.783V328.398H240.862V329.527H239.783V331.072H238.409V329.527ZM236.286 328.41H238.409V325.674H238.384L236.286 328.386V328.41V328.41Z" fill="white"/>
<path d="M319.982 321.11L317.406 318.534H310.118L307.542 321.11L304.965 323.674V330.974L307.542 333.551H307.554L310.118 336.127H317.406L319.982 333.551L322.558 330.974V323.674L319.982 321.11Z" fill="black"/>
<path d="M310.928 329.024H312.302C312.437 329.711 313.001 330.042 313.737 330.042C314.547 330.042 315.05 329.465 315.05 328.705C315.05 327.871 314.486 327.404 313.737 327.404C313.197 327.404 312.793 327.613 312.584 327.846H311.234L311.909 323.994H316.068V325.159H312.891L312.621 326.68H312.645C312.952 326.411 313.455 326.239 314.118 326.239C315.369 326.239 316.51 327.171 316.51 328.705C316.51 330.177 315.332 331.208 313.774 331.208C312.204 331.22 311.05 330.398 310.928 329.024Z" fill="white"/>
<path d="M319.982 396.709L317.406 394.133H310.118L307.542 396.709L304.965 399.285V406.573L307.542 409.149H307.554L310.118 411.726H317.406L319.982 409.149L322.558 406.573V399.285L319.982 396.709Z" fill="black"/>
<path d="M311.026 403.248C311.014 401.997 311.259 400.991 311.885 400.279C312.339 399.764 312.964 399.469 313.921 399.469C315.332 399.469 316.179 400.242 316.351 401.297H315.001C314.903 400.868 314.596 400.549 313.971 400.549C312.94 400.549 312.449 401.322 312.449 402.573H312.474C312.842 402.144 313.308 401.837 314.13 401.837C315.443 401.837 316.584 402.856 316.584 404.365C316.584 405.825 315.43 406.843 313.946 406.843C311.934 406.831 311.051 405.174 311.026 403.248ZM315.246 404.377C315.246 403.567 314.682 402.966 313.921 402.966C313.05 402.966 312.547 403.555 312.547 404.365C312.547 405.162 313.124 405.726 313.909 405.726C314.658 405.726 315.246 405.138 315.246 404.377Z" fill="white"/>
<path d="M319.982 506.463L317.406 503.887H310.118L307.542 506.463L304.965 509.04V516.327L307.542 518.904H307.554L310.118 521.48H317.406L319.982 518.904L322.558 516.327V509.04L319.982 506.463Z" fill="black"/>
<path d="M311.235 514.732H312.596C312.707 515.149 313.05 515.505 313.676 515.505C314.118 515.505 314.449 515.37 314.707 515.064C314.989 514.708 315.136 514.131 315.148 513.407H315.124C314.756 513.837 314.265 514.18 313.48 514.18C312.044 514.18 310.952 513.199 310.952 511.69C310.952 510.23 312.106 509.211 313.615 509.211C315.492 509.211 316.547 510.401 316.547 512.794C316.547 515.051 315.798 516.573 313.725 516.573C312.228 516.573 311.394 515.8 311.235 514.732ZM315.099 511.69C315.099 510.88 314.486 510.316 313.688 510.316C312.879 510.316 312.29 510.892 312.29 511.665C312.29 512.475 312.805 513.039 313.676 513.039C314.473 513.039 315.099 512.512 315.099 511.69Z" fill="white"/>
<path d="M319.982 481.877L317.406 479.301H310.118L307.542 481.877L304.965 484.454V491.741L307.542 494.317H307.554L310.118 496.882H317.406L319.982 494.317L322.558 491.741V484.454L319.982 481.877Z" fill="black"/>
<path d="M310.928 489.79C310.928 488.907 311.443 488.232 312.216 487.926V487.901C311.59 487.607 311.234 487.177 311.234 486.49C311.234 485.3 312.277 484.613 313.811 484.613C315.332 484.613 316.326 485.288 316.326 486.478C316.326 487.14 315.958 487.594 315.344 487.889V487.913C316.13 488.195 316.633 488.87 316.633 489.717C316.633 491.177 315.418 491.974 313.823 491.974C312.204 491.986 310.928 491.226 310.928 489.79ZM315.16 489.741C315.16 489.017 314.657 488.551 313.799 488.551C312.928 488.551 312.375 489.017 312.375 489.741C312.375 490.428 312.915 490.858 313.774 490.858C314.596 490.858 315.16 490.404 315.16 489.741ZM314.94 486.613C314.94 486.048 314.51 485.693 313.774 485.693C313.026 485.693 312.596 486.061 312.596 486.613C312.596 487.177 313.026 487.57 313.774 487.57C314.51 487.57 314.94 487.177 314.94 486.613Z" fill="white"/>
<path d="M319.982 457.279L317.406 454.702H310.118L307.542 457.279L304.965 459.855V467.143L307.542 469.719H307.554L310.118 472.295H317.406L319.982 469.719L322.558 467.143V459.855L319.982 457.279Z" fill="black"/>
<path d="M314.743 461.401V461.389H311.234V460.175H316.277V461.328C315.001 462.616 313.823 464.677 313.725 467.241H312.204C312.277 464.64 313.664 462.506 314.743 461.401Z" fill="white"/>
<path d="M276.65 562.261V549.538C276.65 545.465 279.962 542.153 284.035 542.153H297.886" stroke="black" stroke-width="0.497" stroke-miterlimit="10"/>
<path d="M194.254 562.261V549.538C194.254 545.465 197.567 542.153 201.64 542.153H215.491" stroke="black" stroke-width="0.497" stroke-miterlimit="10"/>
<path d="M262.098 562.261V549.538C262.098 545.465 258.786 542.153 254.713 542.153H240.862" stroke="black" stroke-width="0.497" stroke-miterlimit="10"/>
<path d="M142.874 414.744L140.297 412.168H132.997L130.421 414.744L127.845 417.32V424.608L130.421 427.184L132.997 429.761H140.297L142.874 427.184L145.45 424.608V417.32L142.874 414.744Z" fill="black"/>
<path d="M133.316 419.774H131.721V418.854C132.58 418.817 133.365 418.498 133.5 417.59H134.727V424.706H133.316V419.774Z" fill="white"/>
<path d="M136.249 423.025H137.61C137.721 423.442 138.052 423.798 138.69 423.798C139.119 423.798 139.463 423.663 139.708 423.356C139.99 423 140.138 422.436 140.15 421.7H140.125C139.757 422.129 139.267 422.473 138.481 422.473C137.058 422.473 135.954 421.491 135.954 419.982C135.954 418.535 137.095 417.504 138.604 417.504C140.493 417.504 141.536 418.694 141.536 421.087C141.536 423.344 140.776 424.878 138.702 424.878C137.242 424.865 136.396 424.092 136.249 423.025ZM140.089 419.97C140.089 419.16 139.487 418.608 138.69 418.608C137.868 418.608 137.291 419.185 137.291 419.946C137.291 420.755 137.807 421.32 138.678 421.32C139.487 421.332 140.089 420.792 140.089 419.97Z" fill="white"/>
<path d="M167.717 414.744L165.141 412.168H157.853L155.277 414.744L152.7 417.32V424.608L155.277 427.184L157.853 429.761H165.141L167.717 427.184L170.293 424.608V417.32L167.717 414.744Z" fill="black"/>
<path d="M158.172 419.774H156.577V418.854C157.448 418.817 158.221 418.498 158.356 417.59H159.583V424.706H158.172V419.774V419.774Z" fill="white"/>
<path d="M160.786 422.67C160.786 421.786 161.301 421.112 162.074 420.805V420.78C161.449 420.486 161.081 420.057 161.081 419.37C161.081 418.179 162.123 417.492 163.645 417.492C165.166 417.492 166.16 418.167 166.16 419.357C166.16 420.02 165.792 420.486 165.178 420.768V420.793C165.963 421.063 166.466 421.75 166.466 422.596C166.466 424.056 165.252 424.854 163.657 424.854C162.062 424.866 160.786 424.093 160.786 422.67ZM165.019 422.621C165.019 421.897 164.516 421.418 163.645 421.418C162.774 421.418 162.234 421.897 162.234 422.621C162.234 423.308 162.774 423.737 163.632 423.737C164.454 423.737 165.019 423.283 165.019 422.621ZM164.798 419.492C164.798 418.928 164.369 418.56 163.632 418.56C162.884 418.56 162.455 418.928 162.455 419.492C162.455 420.044 162.884 420.437 163.632 420.437C164.356 420.449 164.798 420.044 164.798 419.492Z" fill="white"/>
<path d="M192.573 414.744L189.997 412.168H182.709L180.133 414.744L177.557 417.32V424.608L180.133 427.184L182.709 429.761H189.997L192.573 427.184L195.15 424.608V417.32L192.573 414.744Z" fill="black"/>
<path d="M183.372 419.774H181.777V418.854C182.648 418.817 183.421 418.498 183.556 417.59H184.782V424.706H183.372V419.774V419.774Z" fill="white"/>
<path d="M189.445 418.866V418.854H185.936V417.639H190.978V418.805C189.702 420.093 188.524 422.142 188.426 424.706H186.905C186.991 422.105 188.377 419.97 189.445 418.866Z" fill="white"/>
<path d="M118.005 414.744L115.429 412.168H108.141L105.565 414.744L102.988 417.32V424.608L105.565 427.184L108.141 429.761H115.429L118.005 427.184L120.581 424.608V417.32L118.005 414.744Z" fill="black"/>
<path d="M107.577 421.909C108.46 421.209 109.429 420.706 109.429 419.811C109.429 419.148 109.073 418.707 108.448 418.707C107.736 418.707 107.319 419.222 107.294 420.142H105.969C105.969 418.535 106.791 417.517 108.472 417.517C110.006 417.517 110.877 418.559 110.877 419.774C110.877 421.111 109.969 421.737 109.11 422.314C108.558 422.669 107.92 423.123 107.687 423.577H110.951V424.731H105.871C105.92 423.356 106.767 422.534 107.577 421.909Z" fill="white"/>
<path d="M111.76 421.185C111.76 418.928 112.926 417.492 114.717 417.492C116.545 417.492 117.661 418.916 117.661 421.185C117.661 423.43 116.545 424.878 114.717 424.878C112.901 424.878 111.76 423.43 111.76 421.185ZM116.189 421.185C116.189 419.689 115.76 418.682 114.704 418.682C113.662 418.682 113.208 419.676 113.208 421.185C113.208 422.682 113.662 423.676 114.704 423.676C115.772 423.676 116.189 422.694 116.189 421.185Z" fill="white"/>
<path d="M113.122 552.79L110.545 550.201H103.258L100.669 552.79L98.1051 555.354V562.654L100.669 565.23H100.682L103.258 567.806H110.545L113.122 565.23L115.698 562.654V555.354L113.122 552.79Z" fill="black"/>
<path d="M103.675 557.82H102.08V556.887C102.951 556.863 103.724 556.544 103.872 555.636H105.098V562.751H103.687V557.82H103.675Z" fill="white"/>
<path d="M106.178 560.702H107.552C107.675 561.39 108.251 561.733 108.988 561.733C109.797 561.733 110.3 561.144 110.3 560.383C110.3 559.561 109.736 559.095 108.988 559.095C108.448 559.095 108.031 559.304 107.834 559.537H106.485L107.16 555.672H111.319V556.838H108.141L107.871 558.371H107.896C108.202 558.102 108.718 557.93 109.368 557.93C110.619 557.93 111.76 558.862 111.76 560.383C111.76 561.868 110.57 562.899 109.024 562.899C107.454 562.911 106.313 562.089 106.178 560.702Z" fill="white"/>
<path d="M142.027 552.79L139.451 550.201H132.163L129.587 552.79L127.01 555.354V562.654L129.587 565.23L132.163 567.806H139.451L142.027 565.23L144.591 562.654V555.354L142.027 552.79Z" fill="black"/>
<path d="M132.494 557.82H130.899V556.887C131.77 556.863 132.543 556.544 132.678 555.636H133.905V562.751H132.494V557.82Z" fill="white"/>
<path d="M138.358 561.218H135.107V559.709L138.309 555.612H139.732V560.09H140.812V561.218H139.732V562.752H138.358V561.218V561.218ZM136.248 560.09H138.37V557.354H138.346L136.236 560.065V560.09H136.248Z" fill="white"/>
<path d="M170.919 552.79L168.343 550.201H161.055L158.479 552.79L155.902 555.354V562.654L158.479 565.23L161.055 567.806H168.343L170.919 565.23L173.496 562.654V555.354L170.919 552.79Z" fill="black"/>
<path d="M161.533 557.82H159.938V556.887C160.797 556.863 161.582 556.544 161.717 555.636H162.957V562.751H161.546V557.82H161.533Z" fill="white"/>
<path d="M164.049 560.347H165.386C165.435 561.194 165.815 561.783 166.785 561.783C167.57 561.783 168.036 561.366 168.036 560.642C168.036 559.967 167.607 559.55 166.736 559.55H166.306V558.482H166.699C167.373 558.482 167.84 558.151 167.84 557.55C167.84 556.986 167.459 556.618 166.846 556.618C166.036 556.618 165.644 557.145 165.619 557.881H164.282C164.331 556.483 165.202 555.55 166.846 555.55C168.318 555.55 169.275 556.286 169.275 557.452C169.275 558.249 168.772 558.716 168.061 558.936V558.961C168.968 559.17 169.496 559.758 169.496 560.728C169.496 562.2 168.281 562.911 166.834 562.911C165.018 562.899 164.073 561.893 164.049 560.347Z" fill="white"/>
<path d="M187.543 151.866V151.854L184.967 149.29H177.667L175.09 151.854V151.866L172.526 154.443V161.73L175.09 164.306L177.667 166.883H184.967L187.543 164.306L190.119 161.73V154.443L187.543 151.866Z" fill="black"/>
<path d="M177.52 159.031C178.403 158.32 179.373 157.829 179.373 156.921C179.373 156.258 179.029 155.817 178.391 155.817C177.68 155.817 177.262 156.332 177.238 157.252H175.925C175.925 155.645 176.747 154.627 178.428 154.627C179.974 154.627 180.833 155.67 180.833 156.884C180.833 158.209 179.937 158.847 179.054 159.424C178.514 159.767 177.876 160.233 177.63 160.675H180.882V161.828H175.815C175.864 160.479 176.71 159.657 177.52 159.031Z" fill="white"/>
<path d="M183.421 159.031C184.304 158.32 185.274 157.829 185.274 156.921C185.274 156.258 184.93 155.817 184.292 155.817C183.58 155.817 183.163 156.332 183.139 157.252H181.814C181.814 155.645 182.648 154.627 184.317 154.627C185.85 154.627 186.721 155.67 186.721 156.884C186.721 158.209 185.813 158.847 184.942 159.424C184.39 159.767 183.764 160.233 183.519 160.675H186.783V161.828H181.703C181.765 160.479 182.611 159.657 183.421 159.031Z" fill="white"/>
<path d="M181.888 12.5079L179.312 9.93152L172.024 9.93152L169.448 12.5079L166.871 15.0966V22.3718L169.448 24.9482V24.9605L172.024 27.5246L179.312 27.5246L181.888 24.9605V24.9482L184.464 22.3718V15.0966L181.888 12.5079Z" fill="black"/>
<path d="M171.742 19.6728C172.637 18.9735 173.594 18.4827 173.594 17.5749C173.594 16.9124 173.251 16.4584 172.613 16.4584C171.901 16.4584 171.472 16.9737 171.447 17.8938H170.134C170.134 16.2744 170.944 15.2561 172.637 15.2561C174.183 15.2561 175.042 16.2989 175.042 17.5135C175.042 18.8385 174.134 19.4765 173.275 20.0408C172.723 20.3966 172.097 20.8506 171.852 21.3045H175.103V22.4577H170.024C170.085 21.1327 170.932 20.2985 171.742 19.6728Z" fill="white"/>
<path d="M175.753 20.4455H177.127C177.262 21.1325 177.826 21.4638 178.562 21.4638C179.372 21.4638 179.875 20.8872 179.875 20.1265C179.875 19.2923 179.311 18.8261 178.562 18.8261C178.022 18.8261 177.618 19.0346 177.409 19.2677H176.06L176.734 15.4154H180.893V16.5809H177.703L177.434 18.1145H177.458C177.765 17.8446 178.268 17.6728 178.93 17.6728C180.182 17.6728 181.323 18.6052 181.323 20.1388C181.323 21.6233 180.133 22.6416 178.587 22.6416C177.029 22.6293 175.888 21.8073 175.753 20.4455Z" fill="white"/>
<path d="M84.2173 428.497V428.485L81.6409 425.908H74.3534L71.7893 428.485V428.497L69.2129 431.061V438.349L71.7893 440.925L74.3534 443.501H81.6409L84.2173 440.925L86.7937 438.349V431.061L84.2173 428.497Z" fill="black"/>
<path d="M75.0162 435.649C75.8995 434.95 76.8687 434.447 76.8687 433.551C76.8687 432.889 76.5252 432.447 75.8872 432.447C75.1757 432.447 74.7585 432.962 74.7463 433.883H73.4213C73.4213 432.275 74.2433 431.257 75.9241 431.257C77.4576 431.257 78.3287 432.3 78.3287 433.514C78.3287 434.839 77.4208 435.477 76.562 436.054C76.0099 436.41 75.372 436.864 75.1389 437.318H78.39V438.459H73.3231C73.3599 437.109 74.1942 436.275 75.0162 435.649Z" fill="white"/>
<path d="M80.8067 433.527H79.2118V432.607C80.0829 432.57 80.8558 432.251 80.9907 431.343H82.2299V438.459H80.8067V433.527Z" fill="white"/>
<path d="M288.427 76.0959L285.851 73.5195H278.563L275.987 76.0959L273.411 78.6723V85.9598L275.987 88.5362L278.563 91.1126H285.851L288.427 88.5362L291.004 85.9598V78.6723L288.427 76.0959Z" fill="black"/>
<path d="M278.183 83.2609C279.066 82.5493 280.035 82.0585 280.035 81.1507C280.035 80.4882 279.692 80.0465 279.054 80.0465C278.342 80.0465 277.913 80.5618 277.9 81.4819H276.575C276.575 79.8747 277.397 78.8564 279.078 78.8564C280.612 78.8564 281.483 79.8993 281.483 81.1139C281.483 82.4389 280.575 83.0768 279.716 83.6534C279.164 84.0092 278.538 84.4632 278.293 84.9048H281.544V86.0581H276.465C276.526 84.7085 277.361 83.8865 278.183 83.2609Z" fill="white"/>
<path d="M282.293 84.0338C282.293 83.1504 282.808 82.4634 283.581 82.169V82.1444C282.955 81.85 282.599 81.4206 282.599 80.7335C282.599 79.5435 283.642 78.8564 285.164 78.8564C286.685 78.8564 287.679 79.5312 287.679 80.7213C287.679 81.3838 287.298 81.8377 286.697 82.1321V82.1567C287.482 82.4266 287.973 83.1136 287.973 83.9602C287.973 85.4201 286.758 86.2176 285.164 86.2176C283.569 86.2176 282.293 85.4446 282.293 84.0338ZM286.525 83.9724C286.525 83.2486 286.022 82.7701 285.151 82.7701C284.28 82.7701 283.74 83.2486 283.74 83.9724C283.74 84.6595 284.268 85.0889 285.139 85.0889C285.961 85.0889 286.525 84.6349 286.525 83.9724ZM286.305 80.844C286.305 80.2796 285.875 79.9238 285.139 79.9238C284.391 79.9238 283.961 80.2919 283.961 80.844C283.961 81.396 284.391 81.7886 285.139 81.7886C285.875 81.8009 286.305 81.4083 286.305 80.844Z" fill="white"/>
<path d="M84.2172 552.79L81.6409 550.201H74.3533L71.777 552.79L69.2006 555.366V562.654L71.777 565.23L74.3533 567.806H81.6409L84.2172 565.23L86.7936 562.654V555.366L84.2172 552.79Z" fill="black"/>
<path d="M74.6845 557.82H73.0896V556.887C73.9484 556.863 74.7336 556.531 74.8685 555.636H76.0954V562.751H74.6845V557.82Z" fill="white"/>
<path d="M77.3842 559.329C77.372 558.078 77.6173 557.059 78.243 556.36C78.697 555.845 79.3227 555.55 80.2796 555.55C81.6905 555.55 82.537 556.323 82.7088 557.378H81.3592C81.2488 556.949 80.9421 556.618 80.3287 556.618C79.2981 556.618 78.8074 557.403 78.8074 558.642H78.8197C79.1877 558.213 79.6539 557.906 80.4882 557.906C81.7886 557.906 82.9296 558.924 82.9296 560.421C82.9296 561.881 81.7764 562.899 80.3041 562.899C78.2798 562.911 77.4088 561.255 77.3842 559.329ZM81.5923 560.458C81.5923 559.648 81.0157 559.059 80.2673 559.059C79.3963 559.059 78.8933 559.636 78.8933 560.458C78.8933 561.267 79.4576 561.819 80.2551 561.819C81.0157 561.807 81.5923 561.218 81.5923 560.458Z" fill="white"/>
<path d="M25.2426 142.984L22.6662 140.407H15.3787L12.8023 142.984L10.226 145.56L10.226 152.848L12.8023 155.424L15.3787 157.988H22.6662L25.2426 155.424L27.819 152.848L27.819 145.56L25.2426 142.984Z" fill="black"/>
<path d="M15.1456 150.136C16.029 149.437 16.9982 148.934 16.9982 148.026C16.9982 147.364 16.6424 146.922 16.0167 146.922C15.3051 146.922 14.8757 147.437 14.8512 148.357H13.5262C13.5262 146.75 14.3482 145.732 16.029 145.732C17.5748 145.732 18.4336 146.775 18.4336 147.989C18.4336 149.327 17.5257 149.952 16.6669 150.529C16.1148 150.885 15.4769 151.339 15.2438 151.793H18.4949V152.946H13.4158C13.4894 151.596 14.3359 150.774 15.1456 150.136Z" fill="white"/>
<path d="M19.1698 150.541H20.5071C20.5561 151.375 20.9365 151.976 21.9057 151.976C22.6909 151.976 23.1448 151.559 23.1448 150.823C23.1448 150.148 22.7154 149.731 21.8443 149.731H21.4272V148.664H21.8321C22.4946 148.664 22.973 148.333 22.973 147.732C22.973 147.167 22.5927 146.799 21.967 146.799C21.1696 146.799 20.777 147.327 20.7402 148.063H19.4029C19.4642 146.664 20.3353 145.719 21.9793 145.719C23.4515 145.719 24.4085 146.456 24.4085 147.633C24.4085 148.431 23.9055 148.897 23.1939 149.118V149.142C24.0895 149.351 24.6293 149.94 24.6293 150.909C24.6293 152.381 23.427 153.093 21.9793 153.093C20.139 153.105 19.1943 152.087 19.1698 150.541Z" fill="white"/>
<path d="M25.2426 67.9616L22.6785 65.3853H15.3787L12.8023 67.9616L10.226 70.5503L10.226 77.8378L12.8023 80.4142L15.3787 82.9783H22.6785L25.2426 80.4142L27.819 77.8378L27.819 70.5503L25.2426 67.9616Z" fill="black"/>
<path d="M15.084 75.1263C15.9673 74.427 16.9365 73.9362 16.9365 73.0283C16.9365 72.3658 16.5807 71.9242 15.9551 71.9242C15.2435 71.9242 14.8141 72.4395 14.7895 73.3596H13.4768C13.4768 71.7524 14.2988 70.7341 15.9796 70.7341C17.5132 70.7341 18.3842 71.777 18.3842 72.9915C18.3842 74.3165 17.4764 74.9545 16.6176 75.5189C16.0655 75.8746 15.4275 76.3286 15.1944 76.7825H18.4456V77.9358H13.3787C13.4277 76.5862 14.2743 75.752 15.084 75.1263Z" fill="white"/>
<path d="M22.3106 76.3897H19.0594V74.8806L22.2615 70.783H23.6847V75.2732H24.7643V76.4019H23.6847V77.9355H22.3106V76.3897ZM20.1882 75.2732H22.3106V72.5374H22.2983L20.1882 75.2364V75.2732Z" fill="white"/>
<path d="M101.664 67.9497L99.0873 65.3733H91.7998L89.2234 67.9497L86.647 70.5261V77.8136L89.2234 80.39L89.2356 80.4022L91.7998 82.9664H99.0873L101.664 80.4022V80.39L104.24 77.8136V70.5261L101.664 67.9497Z" fill="black"/>
<path d="M91.4312 75.1142C92.3145 74.4149 93.2837 73.9241 93.2837 73.0163C93.2837 72.3538 92.9279 71.8998 92.3022 71.8998C91.5906 71.8998 91.1735 72.4151 91.149 73.3352H89.824C89.824 71.7158 90.646 70.6975 92.3268 70.6975C93.8603 70.6975 94.7314 71.7403 94.7314 72.9549C94.7314 74.2799 93.8235 74.9179 92.9647 75.4822C92.4126 75.838 91.7747 76.292 91.5416 76.7459H94.805V77.8991H89.7258C89.7872 76.5619 90.6214 75.7399 91.4312 75.1142Z" fill="white"/>
<path d="M95.6397 74.5004C95.6275 73.249 95.8728 72.2307 96.4985 71.5314C96.9524 71.0161 97.5781 70.7217 98.5351 70.7217C99.946 70.7217 100.792 71.4823 100.964 72.5497H99.6147C99.5166 72.1203 99.2099 71.8013 98.5842 71.8013C97.5536 71.8013 97.0506 72.5742 97.0506 73.8256H97.0751C97.4555 73.3839 97.9094 73.0895 98.7437 73.0895C100.044 73.0895 101.197 74.1078 101.197 75.6046C101.197 77.0645 100.032 78.0828 98.5596 78.0828C96.5353 78.0705 95.652 76.4143 95.6397 74.5004ZM99.8478 75.6168C99.8478 74.8071 99.2712 74.2059 98.5228 74.2059C97.6518 74.2059 97.1487 74.7948 97.1487 75.6046C97.1487 76.402 97.7131 76.9664 98.5228 76.9664C99.2712 76.9664 99.8478 76.3775 99.8478 75.6168Z" fill="white"/>
<path d="M148.971 67.9497L146.395 65.3733H139.107L136.531 67.9497L133.954 70.5261V77.8136L136.531 80.39L139.107 82.9664H146.395L148.971 80.39L151.548 77.8136V70.5261L148.971 67.9497Z" fill="black"/>
<path d="M139.058 75.1141C139.941 74.4148 140.91 73.9241 140.91 73.0162C140.91 72.3537 140.567 71.8998 139.929 71.8998C139.217 71.8998 138.8 72.4273 138.776 73.3352H137.463C137.463 71.728 138.285 70.7097 139.966 70.7097C141.512 70.7097 142.37 71.7525 142.37 72.9671C142.37 74.2921 141.462 74.9301 140.591 75.4944C140.039 75.8502 139.401 76.3042 139.168 76.7581H142.432V77.9113H137.353C137.414 76.5618 138.26 75.7398 139.058 75.1141Z" fill="white"/>
<path d="M146.64 72.0713V72.0468H143.143V70.8445H148.186V71.9977C146.91 73.2982 145.732 75.347 145.634 77.9112H144.113C144.186 75.3102 145.56 73.1878 146.64 72.0713Z" fill="white"/>
<path d="M248.101 76.0959L245.512 73.5195H238.224L235.648 76.0959L233.072 78.6723V85.9598L235.648 88.5362L238.224 91.1126H245.512L248.088 88.5362H248.101L250.677 85.9598V78.6723L248.101 76.0959Z" fill="black"/>
<path d="M237.82 83.2609C238.703 82.5493 239.672 82.0586 239.672 81.1507C239.672 80.4882 239.317 80.0465 238.691 80.0465C237.979 80.0465 237.562 80.5618 237.538 81.4697H236.213C236.213 79.8625 237.035 78.8442 238.728 78.8442C240.261 78.8442 241.132 79.8871 241.132 81.1016C241.132 82.4266 240.224 83.0646 239.353 83.6412C238.801 83.997 238.176 84.4509 237.93 84.8926H241.194V86.0459H236.115C236.164 84.7086 237.01 83.8866 237.82 83.2609Z" fill="white"/>
<path d="M242.298 84.3773H243.659C243.77 84.7944 244.101 85.1502 244.739 85.1502C245.181 85.1502 245.512 85.0153 245.757 84.7085C246.04 84.365 246.187 83.7884 246.199 83.0523H246.174C245.806 83.4817 245.316 83.8252 244.53 83.8252C243.095 83.8252 242.003 82.8315 242.003 81.3347C242.003 79.8747 243.156 78.8564 244.665 78.8564C246.543 78.8564 247.598 80.0465 247.598 82.4389C247.598 84.7085 246.837 86.2298 244.776 86.2298C243.291 86.2176 242.457 85.4446 242.298 84.3773ZM246.15 81.3347C246.15 80.525 245.549 79.9606 244.739 79.9606C243.917 79.9606 243.34 80.5372 243.34 81.3102C243.34 82.1199 243.856 82.672 244.727 82.672C245.537 82.672 246.15 82.1444 246.15 81.3347Z" fill="white"/>
<path d="M404.205 16.5074L401.604 13.9432L394.329 13.9432L391.777 16.5074L389.201 19.0715V26.3713L391.777 28.9354V28.9599L394.329 31.524L401.604 31.524L404.205 28.9599V28.9354L406.757 26.3713V19.0715L404.205 16.5074Z" fill="black"/>
<path d="M398.279 22.7644C398.279 20.556 399.42 19.1451 401.162 19.1451C402.978 19.1451 404.058 20.556 404.058 22.7644C404.058 24.985 402.966 26.3958 401.162 26.3958C399.42 26.3958 398.279 24.985 398.279 22.7644ZM402.622 22.7644C402.622 21.3044 402.205 20.3229 401.175 20.3229C400.156 20.3229 399.702 21.2921 399.702 22.7644C399.702 24.2489 400.156 25.2181 401.175 25.2181C402.205 25.2181 402.622 24.2489 402.622 22.7644Z" fill="white"/>
<path d="M392.182 23.9421H393.52C393.544 24.7887 393.937 25.3653 394.881 25.3653C395.654 25.3653 396.121 24.9482 396.121 24.2366C396.121 23.5741 395.691 23.1569 394.869 23.1569H394.403V22.1264H394.82C395.47 22.1264 395.912 21.8074 395.912 21.2185C395.912 20.6664 395.593 20.3106 394.931 20.3106C394.133 20.3106 393.741 20.8259 393.741 21.562H392.403C392.452 20.1757 393.311 19.2678 394.918 19.2678C396.354 19.2678 397.323 19.9794 397.323 21.1326C397.323 21.9056 396.832 22.384 396.108 22.5926V22.6049C396.979 22.838 397.556 23.4023 397.556 24.3593C397.556 25.7701 396.366 26.4817 394.918 26.4817C393.139 26.4572 392.219 25.4757 392.182 23.9421Z" fill="white"/>
<path d="M374.381 76.1079L371.829 73.5315H364.504L361.953 76.1079L359.413 78.6843V85.9841L361.953 88.5604L364.504 91.1123H371.829L374.381 88.5604L376.969 85.9841V78.6843L374.381 76.1079Z" fill="black"/>
<path d="M367.191 82.0455C367.854 81.8247 368.369 81.3708 368.369 80.5856C368.369 79.4201 367.449 78.7085 365.989 78.7085C364.406 78.7085 363.511 79.6164 363.437 81.0027H364.774C364.811 80.2666 365.191 79.7636 365.989 79.7636C366.578 79.7636 366.958 80.1194 366.958 80.6715C366.958 81.2603 366.504 81.5793 365.854 81.5793H365.437V82.6222H365.854C366.725 82.6222 367.154 83.027 367.154 83.6895C367.154 84.3888 366.688 84.8182 365.927 84.8182C364.983 84.8182 364.639 84.2416 364.566 83.4073H363.253C363.253 84.9286 364.173 85.9224 365.989 85.9224C367.412 85.9224 368.577 85.2231 368.577 83.7999C368.59 82.8553 368.074 82.2786 367.191 82.0455Z" fill="white"/>
<path d="M371.141 78.8071C371.019 79.7027 370.27 80.0095 369.424 80.0217V80.9419H370.982V85.7879H372.405V78.8071H371.141Z" fill="white"/>
<path d="M522.29 100.608L527.087 95.9462L522.29 91.2842V100.608Z" fill="#8A66C3"/>
<path d="M485.018 95.8603C485.018 92.5232 487.153 90.0327 490.527 90.0327C493.913 90.0327 496.06 92.511 496.06 95.8603C496.06 99.2096 493.925 101.688 490.527 101.688C487.153 101.688 485.018 99.1973 485.018 95.8603ZM493.251 95.8603C493.251 93.836 492.355 92.2656 490.539 92.2656C488.748 92.2656 487.828 93.836 487.828 95.8603C487.828 97.8846 488.748 99.4427 490.539 99.4427C492.367 99.4304 493.251 97.8846 493.251 95.8603Z" fill="#8A66C3"/>
<path d="M497.679 97.4797V90.2413H500.439V97.5656C500.439 98.6575 501.004 99.3936 502.353 99.3936C503.642 99.3936 504.243 98.6084 504.243 97.5165V90.229H507.003V97.4674C507.003 100.044 505.457 101.614 502.341 101.614C499.237 101.626 497.679 100.093 497.679 97.4797Z" fill="#8A66C3"/>
<path d="M511.849 92.5967H508.61V90.2534H517.898V92.5967H514.61V101.418H511.849V92.5967Z" fill="#8A66C3"/>
<path d="M492.208 138.285L487.399 133.623L492.208 128.973V128.961V138.285Z" fill="#8A66C3"/>
<path d="M501.139 127.93H498.378V139.095H501.139V127.93Z" fill="#8A66C3"/>
<path d="M504.525 127.93H507.31L510.622 133.537C510.806 133.856 511.395 134.96 511.395 134.96H511.42C511.42 134.96 511.395 133.623 511.395 133.23V127.93H514.094V139.095H511.309L508.021 133.561C507.837 133.267 507.236 132.065 507.236 132.065H507.199C507.199 132.065 507.236 133.5 507.236 133.893V139.095H504.525V127.93Z" fill="#8A66C3"/>
<path d="M132.261 400.341L131.476 399.556H127.967L127.182 400.341L127.967 401.126H131.476L132.261 400.341Z" fill="#13110C"/>
<path d="M70.6243 395.765H72.5136V399.556H77.4946V395.765H79.384V404.917H77.4946V401.126H72.5136V404.917H70.6243V395.765Z" fill="black"/>
<path d="M81.3347 403.347V395.765H83.2241V402.696L84.0951 403.469H87.469L88.34 402.696V395.765H90.2294V403.347L88.34 405.052H83.2241L81.3347 403.347Z" fill="black"/>
<path d="M92.1793 395.765H94.0687L97.6388 400.733L101.209 395.765H103.086V404.917H101.209V398.905L98.3136 402.831H96.964L94.0687 398.905V404.917H92.1793V395.765Z" fill="black"/>
<path d="M108.277 395.765H110.706L114.889 404.905H112.791L111.712 402.488H107.271L106.191 404.905H104.105L108.277 395.765ZM110.976 400.93L109.491 397.593L108.019 400.93H110.976Z" fill="black"/>
<path d="M115.894 395.765H117.698L122.887 402.034V395.765H124.777V404.917H122.949L117.772 398.648V404.917H115.894V395.765Z" fill="black"/>
<path d="M134.678 395.777H141.61L143.168 397.151V399.31L142.285 400.022L143.634 401.261V403.543L142.076 404.917H134.666V395.777H134.678ZM140.555 399.506L141.303 398.869V397.813L140.763 397.36H136.58V399.519H140.555V399.506ZM141.217 403.359L141.757 402.905V401.727L141.021 401.077H136.568V403.359H141.217V403.359Z" fill="black"/>
<path d="M145.192 403.371V397.36L147.081 395.667H152.541L154.43 397.36V403.371L152.541 405.064H147.081L145.192 403.371ZM151.658 403.482L152.529 402.696V397.998L151.658 397.2H147.952L147.069 397.998V402.696L147.952 403.482H151.658Z" fill="black"/>
<path d="M156.369 395.777H163.374L165.263 397.482V403.224L163.374 404.917H156.369V395.777ZM162.503 403.359L163.374 402.574V398.12L162.503 397.335H158.27V403.347H162.503V403.359Z" fill="black"/>
<path d="M169.803 401.923L165.693 395.777H167.84L170.748 400.095L173.643 395.777H175.802L171.68 401.923V404.929H169.803V401.923Z" fill="black"/>
</svg>
